<?xml version="1.0" encoding="UTF-8"?>
<svg version="1.1" xmlns="http://www.w3.org/2000/svg" width="225" height="225">
<path d="M0 0 C74.25 0 148.5 0 225 0 C225 74.25 225 148.5 225 225 C150.75 225 76.5 225 0 225 C0 150.75 0 76.5 0 0 Z " fill="#FEFEFE" transform="translate(0,0)"/>
<path d="M0 0 C0.33 0 0.66 0 1 0 C1 44.22 1 88.44 1 134 C-73.25 134 -147.5 134 -224 134 C-224 99.35 -224 64.7 -224 29 C-222 33 -222 33 -221.10546875 35 C-218.28637774 41.14201956 -214.7822862 44.82867086 -208.34375 47.3984375 C-199.86041657 49.57582641 -190.30711915 49.99707828 -182 47 C-181.28070313 46.7421875 -180.56140625 46.484375 -179.8203125 46.21875 C-174.39810487 43.9148083 -172.45610227 41.30518089 -170 36 C-169.505 35.01 -169.505 35.01 -169 34 C-172.96 34 -176.92 34 -181 34 C-181.66 35.32 -182.32 36.64 -183 38 C-187.61529347 42.15376412 -192.46159047 42.35691559 -198.46484375 42.27734375 C-203.81766463 41.69175009 -206.95950495 39.22725057 -210.4375 35.125 C-212 32 -212 32 -212 26 C-197.48 26 -182.96 26 -168 26 C-168 33.26 -168 40.52 -168 48 C-164.04 48 -160.08 48 -156 48 C-156 46.02 -156 44.04 -156 42 C-155.50371094 42.33773437 -155.00742188 42.67546875 -154.49609375 43.0234375 C-146.94421656 47.98159596 -140.03195986 49.89767185 -131 49 C-124.72505011 47.61789689 -118.41455094 45.32799217 -114.5234375 39.96484375 C-113.28608832 38.00513151 -112.11445858 36.03166785 -111 34 C-110.54560547 34.91265625 -110.54560547 34.91265625 -110.08203125 35.84375 C-107.17354212 41.63972834 -104.39559231 45.34361351 -98.4375 48.25 C-86.6225125 50.82781545 -77.04408891 48.19741656 -67 42 C-67 43.98 -67 45.96 -67 48 C-63.37 48 -59.74 48 -56 48 C-56 36.12 -56 24.24 -56 12 C-53.38560646 15.48585806 -51.24517945 18.97083321 -49.171875 22.77734375 C-48.81861145 23.42570694 -48.4653479 24.07407013 -48.10137939 24.74208069 C-47.3598347 26.10845229 -46.62035022 27.47594378 -45.8828125 28.84448242 C-45.12672343 30.24145475 -44.3643235 31.63502955 -43.59570312 33.02514648 C-42.4820763 35.0394309 -41.38759265 37.06308239 -40.296875 39.08984375 C-39.95114441 39.70770248 -39.60541382 40.32556122 -39.24920654 40.96214294 C-37.80503481 43.69192896 -36.97123117 45.56756245 -37.1784668 48.68261719 C-37.95620482 50.87646244 -38.78681223 52.9171096 -39.84765625 54.98828125 C-40.20537109 55.69404297 -40.56308594 56.39980469 -40.93164062 57.12695312 C-41.30482422 57.84818359 -41.67800781 58.56941406 -42.0625 59.3125 C-42.43955078 60.05306641 -42.81660156 60.79363281 -43.20507812 61.55664062 C-44.13128157 63.37387522 -45.06490629 65.18732404 -46 67 C-41.79114953 67.28570717 -38.06638554 67.18911562 -34 66 C-30.94993736 62.83714144 -29.51905612 59.15943725 -27.875 55.125 C-26.87580851 52.91050481 -25.8744809 50.6969723 -24.87109375 48.484375 C-24.38882324 47.38158203 -23.90655273 46.27878906 -23.40966797 45.14257812 C-21.4502294 40.77439432 -19.22004449 36.58066898 -16.9375 32.375 C-12.63452693 24.30681601 -8.5375835 16.14182456 -4.48999023 7.94287109 C-4.04856689 7.05164551 -3.60714355 6.16041992 -3.15234375 5.2421875 C-2.76038818 4.4466748 -2.36843262 3.65116211 -1.96459961 2.83154297 C-1 1 -1 1 0 0 Z " fill="#FEFEFE" transform="translate(224,91)"/>
<path d="M0 0 C3.96 0 7.92 0 12 0 C12.33 8.58 12.66 17.16 13 26 C14.65 24.68 16.3 23.36 18 22 C25.76841193 18.62616688 37.130524 18.40926453 45.0625 21.5 C51.96534955 25.23519393 56.66191084 31.59605101 59 39 C59.48469293 41.99453853 59.80099136 44.97369623 60 48 C60.4125 47.59007812 60.825 47.18015625 61.25 46.7578125 C61.8275 46.21898437 62.405 45.68015625 63 45.125 C63.556875 44.59132812 64.11375 44.05765625 64.6875 43.5078125 C71.64961892 38.9683228 80.02745522 39.7562794 88 39.875 C89.73443359 39.88853516 89.73443359 39.88853516 91.50390625 39.90234375 C94.33615647 39.92575078 97.16796619 39.95854005 100 40 C99.56494141 38.07994141 99.56494141 38.07994141 99.12109375 36.12109375 C98.95794678 35.40107178 98.7947998 34.6810498 98.62670898 33.93920898 C97.75474434 31.24111191 96.4849077 30.28010397 94 29 C88.73926821 27.24642274 83.10888089 27.07736461 78 29.3125 C75.78264147 31.02463397 75.78264147 31.02463397 74 34 C71.1796875 34.29296875 71.1796875 34.29296875 67.875 34.1875 C66.23144531 34.14689453 66.23144531 34.14689453 64.5546875 34.10546875 C63.71164063 34.07066406 62.86859375 34.03585938 62 34 C62.07352843 30.91180603 62.37713532 28.7329844 64.4140625 26.3359375 C71.16764511 20.29639006 77.59212155 19.65657437 86.375 19.6875 C87.2825 19.67138672 88.19 19.65527344 89.125 19.63867188 C95.11078505 19.63435935 99.52469897 20.57009474 105 23 C105 22.34 105 21.68 105 21 C109.62 21 114.24 21 119 21 C119.81005493 22.62796509 119.81005493 22.62796509 120.63647461 24.28881836 C122.63413524 28.30219341 124.6344129 32.31425922 126.63549805 36.32592773 C127.50242811 38.06482721 128.36864098 39.80408444 129.23413086 41.54370117 C130.47583174 44.03918588 131.72007741 46.53338701 132.96484375 49.02734375 C133.35341049 49.80963852 133.74197723 50.59193329 134.14231873 51.39793396 C135.72795901 54.93036512 135.72795901 54.93036512 138 58 C138.54003662 56.91468994 139.08007324 55.82937988 139.63647461 54.71118164 C141.63413524 50.69780659 143.6344129 46.68574078 145.63549805 42.67407227 C146.50242811 40.93517279 147.36864098 39.19591556 148.23413086 37.45629883 C149.47583174 34.96081412 150.72007741 32.46661299 151.96484375 29.97265625 C152.35341049 29.19036148 152.74197723 28.40806671 153.14231873 27.60206604 C155.88612829 22.11387171 155.88612829 22.11387171 157 21 C159.01964199 20.92755947 161.04167124 20.91622812 163.0625 20.9375 C164.16722656 20.94652344 165.27195313 20.95554687 166.41015625 20.96484375 C167.26480469 20.97644531 168.11945313 20.98804687 169 21 C167.29331311 25.53227593 165.1675358 29.80922263 163 34.1328125 C162.60776749 34.91864212 162.21553497 35.70447174 161.81141663 36.51411438 C160.54334111 39.05228332 159.27195452 41.58877297 158 44.125 C157.56992645 44.98392853 157.13985291 45.84285706 156.69674683 46.72781372 C141.78082384 76.50975733 141.78082384 76.50975733 134 90 C130.04 90 126.08 90 122 90 C123.4304953 84.70716739 126.01207071 80.41592222 128.85546875 75.78125 C130.30795248 72.25166496 129.89932101 70.69598328 129 67 C127.86754165 64.54147678 126.70539937 62.21399663 125.40234375 59.8515625 C125.08881958 59.26785889 124.77529541 58.68415527 124.45227051 58.08276367 C123.29008627 55.92508298 122.11292563 53.77549593 120.9375 51.625 C118.318125 46.79875 115.69875 41.9725 113 37 C112.67 48.22 112.34 59.44 112 71 C108.37 71 104.74 71 101 71 C100.67 69.35 100.34 67.7 100 66 C99.50371094 66.33773437 99.00742188 66.67546875 98.49609375 67.0234375 C89.80318409 72.73073682 80.98439766 74.5862159 70.66015625 72.53515625 C65.72628919 70.9347272 62.05824669 68.19502918 59 64 C57.625 60.625 57.625 60.625 57 58 C56.63261719 58.76183594 56.63261719 58.76183594 56.2578125 59.5390625 C52.85736097 65.80058358 48.46220789 69.08190925 42 72 C33.80807754 74.09886212 25.67330341 73.61007778 18 70 C14.9375 67.8125 14.9375 67.8125 13 66 C12.67 67.65 12.34 69.3 12 71 C8.04 71 4.08 71 0 71 C0 63.74 0 56.48 0 49 C-14.52 49 -29.04 49 -44 49 C-42.75512075 55.36666063 -42.75512075 55.36666063 -40 61 C-37.54295238 62.23290201 -37.54295238 62.23290201 -35 63 C-34.34 63.33 -33.68 63.66 -33 64 C-26.62223346 64.60629591 -21.58801142 64.19314938 -16 61 C-15.56945313 60.3090625 -15.13890625 59.618125 -14.6953125 58.90625 C-13 57 -13 57 -10.08203125 56.609375 C-9.00308594 56.65578125 -7.92414062 56.7021875 -6.8125 56.75 C-5.72582031 56.78609375 -4.63914063 56.8221875 -3.51953125 56.859375 C-2.68808594 56.90578125 -1.85664062 56.9521875 -1 57 C-2.63448672 63.38935717 -5.84258363 66.91940738 -11.4375 70.25 C-20.27076946 74.34997035 -31.85576231 73.93251224 -41 71 C-47.65049668 67.91587422 -52.05360194 63.83381761 -54.75 56.9375 C-57.33634386 48.39688097 -57.05617391 39.01981153 -53 31 C-49.88238611 25.814266 -45.94779897 22.66963754 -40.24609375 20.65625 C-35.93779239 19.78525767 -31.76279278 19.60611118 -27.375 19.5625 C-26.57553955 19.55226807 -25.7760791 19.54203613 -24.95239258 19.53149414 C-16.54160003 19.65557784 -10.0571735 22.083691 -4 28 C-3.01 29.65 -2.02 31.3 -1 33 C-0.67 22.11 -0.34 11.22 0 0 Z " fill="#0767D3" transform="translate(56,68)"/>
<path d="M0 0 C0.9075 -0.01611328 1.815 -0.03222656 2.75 -0.04882812 C8.73578505 -0.05314065 13.14969897 0.88259474 18.625 3.3125 C18.625 2.6525 18.625 1.9925 18.625 1.3125 C23.245 1.3125 27.865 1.3125 32.625 1.3125 C33.16503662 2.39781006 33.70507324 3.48312012 34.26147461 4.60131836 C36.25913524 8.61469341 38.2594129 12.62675922 40.26049805 16.63842773 C41.12742811 18.37732721 41.99364098 20.11658444 42.85913086 21.85620117 C44.10083174 24.35168588 45.34507741 26.84588701 46.58984375 29.33984375 C46.97841049 30.12213852 47.36697723 30.90443329 47.76731873 31.71043396 C49.35295901 35.24286512 49.35295901 35.24286512 51.625 38.3125 C52.16503662 37.22718994 52.70507324 36.14187988 53.26147461 35.02368164 C55.25913524 31.01030659 57.2594129 26.99824078 59.26049805 22.98657227 C60.12742811 21.24767279 60.99364098 19.50841556 61.85913086 17.76879883 C63.10083174 15.27331412 64.34507741 12.77911299 65.58984375 10.28515625 C65.97841049 9.50286148 66.36697723 8.72056671 66.76731873 7.91456604 C69.51112829 2.42637171 69.51112829 2.42637171 70.625 1.3125 C72.64464199 1.24005947 74.66667124 1.22872812 76.6875 1.25 C77.79222656 1.25902344 78.89695312 1.26804687 80.03515625 1.27734375 C80.88980469 1.28894531 81.74445313 1.30054687 82.625 1.3125 C80.91831311 5.84477593 78.7925358 10.12172263 76.625 14.4453125 C76.23276749 15.23114212 75.84053497 16.01697174 75.43641663 16.82661438 C74.16834111 19.36478332 72.89695452 21.90127297 71.625 24.4375 C71.19492645 25.29642853 70.76485291 26.15535706 70.32174683 27.04031372 C55.40582384 56.82225733 55.40582384 56.82225733 47.625 70.3125 C43.665 70.3125 39.705 70.3125 35.625 70.3125 C37.0554953 65.01966739 39.63707071 60.72842222 42.48046875 56.09375 C43.93295248 52.56416496 43.52432101 51.00848328 42.625 47.3125 C41.49254165 44.85397678 40.33039937 42.52649663 39.02734375 40.1640625 C38.71381958 39.58035889 38.40029541 38.99665527 38.07727051 38.39526367 C36.91508627 36.23758298 35.73792563 34.08799593 34.5625 31.9375 C30.6334375 24.698125 30.6334375 24.698125 26.625 17.3125 C26.295 28.5325 25.965 39.7525 25.625 51.3125 C21.995 51.3125 18.365 51.3125 14.625 51.3125 C14.295 49.6625 13.965 48.0125 13.625 46.3125 C13.12871094 46.65023437 12.63242188 46.98796875 12.12109375 47.3359375 C3.42818409 53.04323682 -5.39060234 54.8987159 -15.71484375 52.84765625 C-20.84733549 51.18279809 -23.89552439 48.38603242 -27.375 44.3125 C-29.01264716 39.39955852 -29.22674 34.39453111 -27.25 29.5625 C-22.59189395 23.97277274 -18.59278891 21.39697935 -11.375 20.3125 C-7.03729421 20.08624957 -2.71701597 20.12284226 1.625 20.1875 C3.35943359 20.20103516 3.35943359 20.20103516 5.12890625 20.21484375 C7.96115647 20.23825078 10.79296619 20.27104005 13.625 20.3125 C13.33496094 19.03246094 13.04492188 17.75242187 12.74609375 16.43359375 C12.58294678 15.71357178 12.4197998 14.9935498 12.25170898 14.25170898 C11.37974434 11.55361191 10.1099077 10.59260397 7.625 9.3125 C2.36426821 7.55892274 -3.26611911 7.38986461 -8.375 9.625 C-10.59235853 11.33713397 -10.59235853 11.33713397 -12.375 14.3125 C-15.1953125 14.60546875 -15.1953125 14.60546875 -18.5 14.5 C-20.14355469 14.45939453 -20.14355469 14.45939453 -21.8203125 14.41796875 C-22.66335937 14.38316406 -23.50640625 14.34835938 -24.375 14.3125 C-24.30147157 11.22430603 -23.99786468 9.0454844 -21.9609375 6.6484375 C-15.20735489 0.60889006 -8.78287845 -0.03092563 0 0 Z " fill="#F6B109" transform="translate(142.375,87.6875)"/>
<path d="M0 0 C0.79946045 -0.01023193 1.5989209 -0.02046387 2.42260742 -0.03100586 C10.83339997 0.09307784 17.3178265 2.521191 23.375 8.4375 C28.30188283 15.40309296 27.375 20.40264825 27.375 29.4375 C12.855 29.4375 -1.665 29.4375 -16.625 29.4375 C-15.38012075 35.80416063 -15.38012075 35.80416063 -12.625 41.4375 C-10.16795238 42.67040201 -10.16795238 42.67040201 -7.625 43.4375 C-6.965 43.7675 -6.305 44.0975 -5.625 44.4375 C0.75276654 45.04379591 5.78698858 44.63064938 11.375 41.4375 C11.80554687 40.7465625 12.23609375 40.055625 12.6796875 39.34375 C14.375 37.4375 14.375 37.4375 17.29296875 37.046875 C18.37191406 37.09328125 19.45085938 37.1396875 20.5625 37.1875 C21.64917969 37.22359375 22.73585937 37.2596875 23.85546875 37.296875 C24.68691406 37.34328125 25.51835938 37.3896875 26.375 37.4375 C24.74051328 43.82685717 21.53241637 47.35690738 15.9375 50.6875 C7.10423054 54.78747035 -4.48076231 54.37001224 -13.625 51.4375 C-20.27549668 48.35337422 -24.67860194 44.27131761 -27.375 37.375 C-29.96134386 28.83438097 -29.68117391 19.45731153 -25.625 11.4375 C-22.50738611 6.251766 -18.57279897 3.10713754 -12.87109375 1.09375 C-8.56279239 0.22275767 -4.38779278 0.04361118 0 0 Z " fill="#E7353B" transform="translate(28.625,87.5625)"/>
<path d="M0 0 C4.62 0 9.24 0 14 0 C14.54003662 1.08531006 15.08007324 2.17062012 15.63647461 3.28881836 C17.63413524 7.30219341 19.6344129 11.31425922 21.63549805 15.32592773 C22.50242811 17.06482721 23.36864098 18.80408444 24.23413086 20.54370117 C25.47583174 23.03918588 26.72007741 25.53338701 27.96484375 28.02734375 C28.35341049 28.80963852 28.74197723 29.59193329 29.14231873 30.39793396 C30.72795901 33.93036512 30.72795901 33.93036512 33 37 C33.54003662 35.91468994 34.08007324 34.82937988 34.63647461 33.71118164 C36.63413524 29.69780659 38.6344129 25.68574078 40.63549805 21.67407227 C41.50242811 19.93517279 42.36864098 18.19591556 43.23413086 16.45629883 C44.47583174 13.96081412 45.72007741 11.46661299 46.96484375 8.97265625 C47.35341049 8.19036148 47.74197723 7.40806671 48.14231873 6.60206604 C50.88612829 1.11387171 50.88612829 1.11387171 52 0 C54.01964199 -0.07244053 56.04167124 -0.08377188 58.0625 -0.0625 C59.71958984 -0.04896484 59.71958984 -0.04896484 61.41015625 -0.03515625 C62.26480469 -0.02355469 63.11945313 -0.01195313 64 0 C62.29331311 4.53227593 60.1675358 8.80922263 58 13.1328125 C57.41165123 14.31155693 57.41165123 14.31155693 56.81141663 15.51411438 C55.54334111 18.05228332 54.27195452 20.58877297 53 23.125 C52.56992645 23.98392853 52.13985291 24.84285706 51.69674683 25.72781372 C36.78082384 55.50975733 36.78082384 55.50975733 29 69 C25.04 69 21.08 69 17 69 C18.4304953 63.70716739 21.01207071 59.41592222 23.85546875 54.78125 C25.31387181 51.23728079 24.91264637 49.7144625 24 46 C22.87044776 43.34320076 21.52095188 40.82686731 20.140625 38.29296875 C19.75436951 37.56813797 19.36811401 36.84330719 18.97015381 36.09651184 C17.73804407 33.78915172 16.49418227 31.48836849 15.25 29.1875 C14.42892121 27.65340468 13.60860139 26.11890289 12.7890625 24.58398438 C9.21542966 17.90386084 5.62663115 11.23492186 1.86621094 4.6574707 C1 3 1 3 0 0 Z " fill="#89BA1A" transform="translate(161,89)"/>
<path d="M0 0 C4.77305398 4.63361645 7.14868636 7.95858563 7.25 14.6875 C7.16940963 20.81969436 6.79345365 25.15481573 2.3125 29.71875 C-2.13230946 33.64499835 -4.71529069 35.27369622 -10.84765625 35.140625 C-16.2607769 34.78695469 -19.71886444 33.68850559 -23.3125 29.625 C-27.68508883 24.18621828 -28.50148014 19.9974083 -28.3828125 13.046875 C-27.64011852 7.13563722 -24.64505618 3.56480954 -20.4375 -0.4375 C-13.87575314 -4.64374799 -6.63931775 -3.74216091 0 0 Z " fill="#FAFBFE" transform="translate(96,98)"/>
<path d="M0 0 C1.23363281 0.01353516 1.23363281 0.01353516 2.4921875 0.02734375 C4.49492083 0.05063135 6.49750154 0.08649041 8.5 0.125 C8.66130013 5.75034217 8.29704744 9.77937064 4.5 14.125 C-0.49849848 18.12379878 -5.75461385 18.69087663 -12.0078125 18.45703125 C-16.26965534 17.88923087 -18.54580789 16.07919211 -21.5 13.125 C-21.91861138 9.35749755 -22.0950228 7.04232682 -20 3.8125 C-13.98997744 -0.24426523 -6.99140407 -0.14802647 0 0 Z " fill="#FEFCF8" transform="translate(147.5,114.875)"/>
<path d="M0 0 C3.3470469 1.89354844 5.19415123 3.64595003 6.625 7.3125 C6.625 8.9625 6.625 10.6125 6.625 12.3125 C-3.935 12.3125 -14.495 12.3125 -25.375 12.3125 C-24.3291792 6.03757517 -23.99930933 5.1147099 -19.375 1.3125 C-13.15932887 -2.78419233 -6.72759728 -3.04225906 0 0 Z " fill="#FEFBFB" transform="translate(37.375,96.6875)"/>
<path d="M0 0 C0 3 0 3 -1.3125 4.60546875 C-1.869375 5.12753906 -2.42625 5.64960937 -3 6.1875 C-3.556875 6.71730469 -4.11375 7.24710937 -4.6875 7.79296875 C-5.120625 8.19128906 -5.55375 8.58960937 -6 9 C-6.66 8.67 -7.32 8.34 -8 8 C-7.04578192 6.85073734 -6.08647955 5.70569459 -5.125 4.5625 C-4.59132813 3.92441406 -4.05765625 3.28632812 -3.5078125 2.62890625 C-2 1 -2 1 0 0 Z " fill="#EB4348" transform="translate(11,91)"/>
</svg>
