<?xml version="1.0" encoding="UTF-8"?>
<svg version="1.1" xmlns="http://www.w3.org/2000/svg" width="2560" height="1280">
<path d="M0 0 C1.35059399 0.0026535 1.35059399 0.0026535 2.72847271 0.0053606 C3.41469613 0.00763503 4.10091955 0.00990946 4.80793762 0.01225281 C4.75782532 1.26982391 4.70771301 2.52739502 4.65608215 3.82307434 C3.34989721 36.65279048 2.10928949 69.48447118 0.93556595 102.31918716 C0.8056513 105.9511709 0.675272 109.58313776 0.54484558 113.21510315 C-0.61014663 145.42076621 -1.70573371 177.6268445 -2.54394054 209.84248257 C-2.59528028 211.80834022 -2.64784671 213.77416571 -2.70043945 215.73999023 C-2.76170608 218.04394467 -2.82053942 220.34796629 -2.87594604 222.65206909 C-3.09287626 230.80772201 -3.64796553 238.85080013 -4.19206238 247.01225281 C-20.36206238 247.01225281 -36.53206238 247.01225281 -53.19206238 247.01225281 C-57.40348736 232.41264621 -57.40348736 232.41264621 -59.248703 225.98490906 C-60.48756169 221.66949269 -61.72726466 217.35433786 -62.97355652 213.0410614 C-67.53546433 197.24838894 -71.98342332 181.46220217 -75.79888916 165.4684906 C-83.19269131 134.83347081 -95.95722004 97.68735475 -124.19206238 80.01225281 C-136.34740495 73.39347272 -148.03883783 70.54833238 -161.82531738 70.63130188 C-163.64638584 70.62428192 -163.64638584 70.62428192 -165.50424355 70.61712015 C-168.83866512 70.60729692 -172.17257227 70.61073332 -175.50696146 70.6200788 C-179.11634222 70.62691067 -182.7256804 70.61636796 -186.33505249 70.60813904 C-193.39039414 70.59484536 -200.44563969 70.59765928 -207.500985 70.60637696 C-213.23529587 70.61316768 -218.96957992 70.61406425 -224.70389366 70.61080551 C-225.52175365 70.61034581 -226.33961364 70.60988611 -227.18225726 70.60941248 C-228.84395074 70.60845327 -230.50564421 70.60748062 -232.16733768 70.60649471 C-247.72291944 70.59795432 -263.27844802 70.60775511 -278.83402105 70.62389581 C-292.17548131 70.63731036 -305.51686328 70.63495893 -318.85832214 70.62113953 C-334.3681386 70.60508152 -349.8779086 70.59876493 -365.38773221 70.60797632 C-367.04159144 70.60893193 -368.69545068 70.60987505 -370.34930992 70.61080551 C-371.16296172 70.61126834 -371.97661353 70.61173116 -372.81492144 70.61220802 C-378.54353965 70.6147963 -384.27212833 70.61043066 -390.00074196 70.60336685 C-396.97985534 70.59494976 -403.95886751 70.5972369 -410.9379693 70.61320908 C-414.49736991 70.62108707 -418.05660181 70.62419137 -421.61600113 70.61426163 C-425.47533781 70.60365789 -429.33439885 70.61632853 -433.19372559 70.63130188 C-434.31687095 70.62460971 -435.44001632 70.61791755 -436.5971964 70.61102259 C-442.5225564 70.65569736 -447.03324596 70.96074809 -452.19206238 74.01225281 C-453.22861652 77.12191523 -453.32207024 79.27378435 -453.33072758 82.53512859 C-453.33620202 83.69062228 -453.34167647 84.84611596 -453.3473168 86.03662461 C-453.34829491 87.31189902 -453.34927302 88.58717344 -453.35028076 89.90109253 C-453.35484531 91.2648673 -453.35984517 92.62864067 -453.36524433 93.99241239 C-453.3788471 97.74815064 -453.38624997 101.50387982 -453.39267099 105.25963628 C-453.40066555 109.30666697 -453.41436657 113.35367872 -453.42738342 117.4006958 C-453.44915958 124.41515702 -453.4672999 131.42962014 -453.48298836 138.44409752 C-453.50567661 148.58592208 -453.53382088 158.7277257 -453.56330764 168.8695325 C-453.61099637 185.32293979 -453.65425708 201.77635564 -453.69474792 218.2297821 C-453.73409633 234.21514044 -453.77552099 250.20049117 -453.81974792 266.18583679 C-453.82383433 267.66321735 -453.82383433 267.66321735 -453.82800329 269.17044397 C-453.84168267 274.11137568 -453.85540296 279.05230727 -453.86914361 283.99323881 C-453.98312851 324.99956096 -454.08993341 366.00589952 -454.19206238 407.01225281 C-453.56712932 406.98286887 -452.94219626 406.95348493 -452.29832584 406.92321056 C-449.42809687 406.78883008 -446.5578 406.65595591 -443.6875 406.52310181 C-442.70462273 406.47686094 -441.72174546 406.43062007 -440.70908403 406.38297796 C-432.78855042 406.01802479 -424.88280094 405.8337293 -416.95378113 405.76615906 C-415.59372431 405.75121595 -414.23367287 405.73577778 -412.87362671 405.71989441 C-410.01483898 405.68666344 -407.15604172 405.65482197 -404.29722595 405.62409973 C-380.2116017 405.3601478 -356.140222 404.91404286 -332.06706238 404.07475281 C-330.93932404 404.03713837 -329.81158569 403.99952393 -328.64967346 403.96076965 C-316.36690882 403.5449466 -304.10488675 402.94496276 -291.84440613 402.09037781 C-290.21709061 401.98264793 -290.21709061 401.98264793 -288.55690002 401.8727417 C-270.18223233 400.51163224 -245.77388923 397.31276104 -232.55534363 383.27397156 C-225.1143766 374.22110739 -222.34088986 362.67462908 -219.76698303 351.4879303 C-218.8494551 347.50268645 -217.89664292 343.52578776 -216.94987488 339.54740906 C-216.74214951 338.6704689 -216.53442413 337.79352875 -216.32040405 336.89001465 C-213.20857158 323.79758459 -209.90344266 310.75236643 -206.62956238 297.69975281 C-204.50518738 289.22287781 -202.38081238 280.74600281 -200.19206238 272.01225281 C-182.70206238 272.01225281 -165.21206238 272.01225281 -147.19206238 272.01225281 C-147.19206238 280.53750128 -147.34144729 288.80838119 -147.98991394 297.27323914 C-148.16506211 299.68516283 -148.33965581 302.09712683 -148.51377869 304.50912476 C-148.60664909 305.77960852 -148.6995195 307.05009228 -148.79520416 308.35907555 C-154.45337012 386.79485866 -155.70130063 464.16959203 -152.00608826 542.72558594 C-151.92525309 544.47417168 -151.92525309 544.47417168 -151.84278488 546.25808239 C-151.74421475 548.36717447 -151.64207747 550.47610584 -151.53483963 552.58477497 C-151.08993537 562.0884058 -151.19206238 571.45664727 -151.19206238 581.01225281 C-168.68206238 581.01225281 -186.17206238 581.01225281 -204.19206238 581.01225281 C-208.73599533 562.836521 -208.73599533 562.836521 -210.55924988 553.73100281 C-210.9740411 551.71395773 -211.38942359 549.69703417 -211.80534363 547.68022156 C-212.43845878 544.59494811 -213.06769757 541.50908387 -213.68669128 538.42094421 C-218.29527704 515.50168703 -224.35044745 489.84803258 -244.69206238 475.63725281 C-261.16216548 465.53900306 -280.32283119 464.08802843 -299.20207214 463.06181335 C-301.20238047 462.9526018 -303.20212141 462.83314982 -305.201828 462.71342468 C-336.73450714 460.87482988 -368.3526479 460.59246656 -399.92601013 460.01646423 C-406.06159937 459.90404786 -412.19714089 459.78908419 -418.33268738 459.67436218 C-430.28576808 459.45122617 -442.23889737 459.23082304 -454.19206238 459.01225281 C-454.13310829 494.80950191 -454.05850325 530.60668448 -453.9630761 566.40385536 C-453.95180871 570.63554419 -453.94067013 574.86723335 -453.92961121 579.09892273 C-453.92630568 580.36253672 -453.92630568 580.36253672 -453.92293338 581.65167826 C-453.88761626 595.26973972 -453.86272065 608.88780113 -453.84171536 622.50589133 C-453.81990872 636.49216374 -453.78681235 650.47837701 -453.74336082 664.46459907 C-453.71692766 673.08624961 -453.69917101 681.70782655 -453.69271634 690.32951557 C-453.68743683 696.25165207 -453.67113456 702.17369618 -453.64639672 708.09578306 C-453.63246873 711.50625028 -453.62481916 714.91641285 -453.62705421 718.32692909 C-453.63711647 740.77535762 -453.08746346 762.36835761 -437.19206238 780.01225281 C-415.86690677 799.89482436 -384.76072426 800.33427301 -357.26213074 800.27104187 C-355.24242528 800.27376047 -353.22272082 800.27732622 -351.20301819 800.28166199 C-345.77485949 800.29068912 -340.34677781 800.28728105 -334.91861796 800.28090382 C-329.19332236 800.2757883 -323.46803272 800.28055097 -317.74273682 800.28367615 C-308.12597997 800.28730184 -298.50925397 800.2825557 -288.89250183 800.272995 C-277.84256918 800.26213491 -266.7927105 800.26562392 -255.74277967 800.27664781 C-246.19301827 800.28578678 -236.64327887 800.28697331 -227.0935145 800.28177047 C-221.41774797 800.278684 -215.74201594 800.27814778 -210.06625175 800.28484344 C-140.97593303 801.37389903 -140.97593303 801.37389903 -80.19206238 772.01225281 C-78.90042175 770.94877625 -78.90042175 770.94877625 -77.58268738 769.86381531 C-66.0328281 759.9280668 -57.79324235 748.05677458 -50.19206238 735.01225281 C-49.54882019 733.91139343 -48.905578 732.81053406 -48.24284363 731.67631531 C-42.11814302 720.65955823 -37.19685144 709.05730087 -32.09732056 697.54289246 C-28.49605214 689.42294529 -24.82227145 681.33590663 -21.15357971 673.2462616 C-15.81778372 661.48033347 -10.49359048 649.7096335 -5.23112488 637.91069031 C-4.83506042 637.02302475 -4.43899597 636.13535919 -4.03092957 635.22079468 C-2.13690526 630.97447875 -0.24589166 626.726855 1.64094543 622.4773407 C2.31373627 620.9668156 2.98658448 619.45631606 3.65950012 617.94584656 C3.96584381 617.25320709 4.2721875 616.56056763 4.58781433 615.84693909 C6.69465173 611.1255387 6.69465173 611.1255387 7.80793762 610.01225281 C9.22018808 609.9193802 10.63702697 609.89478509 12.05232239 609.89872742 C12.95318069 609.89880295 13.854039 609.89887848 14.78219604 609.8989563 C15.76135483 609.90411758 16.74051361 609.90927887 17.74934387 609.91459656 C18.74675095 609.91601151 19.74415802 609.91742645 20.77178955 609.91888428 C23.97136886 609.92450166 27.17087931 609.9370571 30.37043762 609.94975281 C32.53384807 609.95476557 34.69725962 609.95932886 36.860672 609.96342468 C42.17645088 609.97447674 47.49218933 609.99123177 52.80793762 610.01225281 C52.65872864 611.08362488 52.50951965 612.15499695 52.35578918 613.25883484 C47.84901107 645.81474004 43.89971788 678.43483133 40.05793762 711.07475281 C39.93147228 712.14860355 39.80500694 713.2224543 39.67470932 714.32884598 C36.5581381 740.81132957 33.52994022 767.30264179 30.62434387 793.80912781 C30.49638554 794.97599562 30.3684272 796.14286343 30.23659134 797.34509087 C28.99580604 808.66817306 27.76210213 819.99198653 26.54493046 831.31763268 C26.10009224 835.45176511 25.65215867 839.58555892 25.20376396 843.71930695 C24.89652199 846.56484204 24.59416859 849.41086924 24.29196167 852.25694275 C24.10850189 853.95055423 23.92479668 855.64413914 23.74079895 857.33769226 C23.66035969 858.10916627 23.57992043 858.88064028 23.49704361 859.67549229 C22.92182174 864.89836869 22.92182174 864.89836869 21.80793762 866.01225281 C19.73106243 866.1090321 17.65083847 866.13452937 15.57171059 866.13251686 C14.60145291 866.13308853 14.60145291 866.13308853 13.61159407 866.13367175 C11.46293394 866.13297406 9.31439488 866.12432899 7.16575623 866.11494446 C5.65714039 866.1114091 4.14852446 866.10791655 2.63990843 866.10446513 C-10.85721237 866.06062828 -24.34738928 865.79865077 -37.84036493 865.46813345 C-44.43314912 865.30675128 -51.02632614 865.16239722 -57.61946201 865.01623487 C-59.19301728 864.98134643 -60.76657051 864.94636652 -62.34012175 864.91129684 C-153.03089549 862.89060246 -243.69618374 862.54175272 -334.40651003 862.62387046 C-349.55852131 862.63731083 -364.71046241 862.63476578 -379.86247253 862.62113953 C-469.57275891 862.54255502 -559.20918466 862.94524885 -652.44876075 865.46664643 C-672.04135267 865.99947129 -691.59122965 866.13789491 -711.19206238 866.01225281 C-711.19206238 850.17225281 -711.19206238 834.33225281 -711.19206238 818.01225281 C-706.25237488 816.91526062 -701.31268738 815.81826843 -696.22331238 814.68803406 C-693.06038117 813.98240066 -689.89755064 813.27636362 -686.73503113 812.56889343 C-681.735401 811.45049272 -676.73549851 810.33345356 -671.73356628 809.22538757 C-667.69269208 808.33012259 -663.65339271 807.42803379 -659.61502075 806.52155113 C-658.08809648 806.17999577 -656.56065524 805.84074159 -655.03265381 805.50403786 C-625.36031767 799.64238855 -625.36031767 799.64238855 -602.19206238 782.01225281 C-590.51143774 761.74381674 -593.85593301 734.80357165 -593.25597763 712.11391068 C-593.19117251 709.66614144 -593.12566374 707.21839183 -593.06001282 704.77064514 C-590.75249331 618.54558379 -590.01191514 532.31146591 -590.06349355 446.05793065 C-590.06726383 439.02284306 -590.06589703 431.98776957 -590.06169128 424.9526825 C-590.02006701 353.32690943 -590.43293122 281.70409406 -592.06783676 210.09457016 C-592.1323368 207.26556503 -592.19560994 204.43653411 -592.25874329 201.60749817 C-592.75503374 179.47741624 -593.25457645 157.34504082 -594.01753235 135.22227478 C-594.09067674 133.08564562 -594.16007963 130.94888416 -594.22523499 128.81199646 C-594.78204494 107.23231611 -594.78204494 107.23231611 -604.37956238 88.38725281 C-617.03171508 77.70321275 -631.5715323 74.1648997 -647.37956238 70.76225281 C-649.1089003 70.38225334 -650.8380637 70.00145887 -652.56706238 69.61991882 C-658.10543759 68.40200007 -663.64848531 67.20623052 -669.19206238 66.01225281 C-671.17857353 65.5831474 -673.16506417 65.15394704 -675.15153503 64.72465515 C-687.16047484 62.13200174 -699.17550925 59.56982999 -711.19206238 57.01225281 C-711.19206238 40.84225281 -711.19206238 24.67225281 -711.19206238 8.01225281 C-702.858664 8.13367502 -694.52534841 8.25851727 -686.19206238 8.38725281 C-684.89326515 8.40714189 -683.59446792 8.42703098 -682.2563132 8.44752276 C-665.05093587 8.71295971 -647.84754913 9.02831728 -630.64490303 9.43530358 C-576.41383088 10.71828536 -522.21473355 11.3287668 -467.96904218 11.31461399 C-460.59836723 11.31274304 -453.22770099 11.31466688 -445.85702705 11.31882286 C-444.24346658 11.31971564 -444.24346658 11.31971564 -442.59730892 11.32062646 C-440.40808542 11.32183892 -438.21886192 11.32305305 -436.02963842 11.32426884 C-415.86259857 11.33495211 -395.69557577 11.33307089 -375.52853508 11.32688399 C-357.24563729 11.32168554 -338.96279229 11.33308172 -320.67990493 11.35198221 C-301.63249621 11.3715144 -282.58511232 11.37959289 -263.53769356 11.37585896 C-252.95208688 11.3739759 -242.36652591 11.37622966 -231.78092766 11.3905735 C-188.68606148 11.44568768 -145.76464345 11.34898768 -102.76116312 8.19986451 C-100.18721885 8.0118991 -97.61290055 7.83026474 -95.03836536 7.65058804 C-85.77115095 7.00197782 -76.5123479 6.28461014 -67.25456238 5.51225281 C-65.2643509 5.35063627 -63.27413865 5.18902812 -61.28386784 5.02814388 C-45.59148895 3.75875602 -29.90236113 2.43890056 -14.24113464 0.82475281 C-13.15630798 0.7151825 -12.07148132 0.60561218 -10.95378113 0.49272156 C-10.0665033 0.39886169 -9.17922546 0.30500183 -8.26506042 0.20829773 C-5.49489226 0.03157214 -2.77452054 -0.00707074 0 0 Z " fill="#F45700" transform="translate(804.1920623779297,79.98774719238281)"/>
<path d="M0 0 C0 14.52 0 29.04 0 44 C-18.5 48.25 -18.5 48.25 -24.22851562 49.56347656 C-32.12002521 51.37698277 -40.00775812 53.20866817 -47.875 55.125 C-49.71191406 55.56972656 -49.71191406 55.56972656 -51.5859375 56.0234375 C-61.99579863 59.00108656 -70.83988161 64.18780613 -76.5625 73.55859375 C-81.36600186 82.7425618 -82.65569044 92.24508321 -79.62890625 102.29296875 C-78.95809268 104.26402644 -78.26771361 106.22848672 -77.5625 108.1875 C-77.16764404 109.32654785 -76.77278809 110.4655957 -76.3659668 111.63916016 C-75.19864646 115.00117562 -74.00754141 118.35441146 -72.8137207 121.70709229 C-71.64667833 124.9955922 -70.49423945 128.2891642 -69.34059143 131.5823822 C-52.39545117 179.93279519 -34.93379135 228.11054892 -17.06787109 276.12780762 C-15.97082723 279.07846434 -14.87573681 282.0298392 -13.78125 284.98144531 C2.32143923 328.40702768 18.66877006 371.74027445 35.375 414.9375 C35.7580127 415.93017883 36.14102539 416.92285767 36.53564453 417.94561768 C41.4710557 430.7274861 46.60907135 443.40327557 52 456 C77.70611489 401.63550796 100.87649478 346.03694611 123.95294189 290.51800537 C124.99864599 288.00325618 126.04573078 285.48908636 127.09326172 282.97509766 C142.85688058 245.13896 158.44604963 207.2251912 173.56135559 169.12486267 C175.22344227 164.93908909 176.90286486 160.76071296 178.59350586 156.58639526 C195.65057699 119.77554809 195.65057699 119.77554809 195.3125 80.875 C189.24116697 66.96765584 177.83376682 61.36530215 164.27590942 55.86486816 C157.54693635 53.30779163 150.56606829 51.50462963 143.625 49.625 C141.2557884 48.97170702 138.88751943 48.31511594 136.5196228 47.65707397 C135.06487992 47.2540148 133.60920594 46.85429681 132.15249634 46.45840454 C127.21535046 45.10767523 127.21535046 45.10767523 125 44 C125 29.48 125 14.96 125 0 C141.54372356 -0.13672499 157.99934745 0.05697011 174.52734375 0.69140625 C175.43028797 0.72561047 176.33323219 0.75981468 177.26353836 0.79505539 C185.6948442 1.11513641 194.12570056 1.44586705 202.5559082 1.79370117 C227.40694296 2.81277845 252.05681173 3.07115312 276.9109993 2.08189774 C280.17399697 1.95397431 283.43746858 1.83982087 286.70092773 1.72436523 C294.67726206 1.43682951 302.65257721 1.12526521 310.62744141 0.79956055 C327.09387571 0.13232271 343.52005662 -0.12494902 360 0 C360.3992969 6.02746352 360.68740215 12.04707119 360.87890625 18.0847168 C360.95878031 20.13132862 361.06754677 22.17704422 361.20703125 24.22045898 C362.29575859 40.59539846 362.29575859 40.59539846 358.5390625 46.16656494 C354.31509114 50.6895171 349.29071062 53.86636706 344 57 C342.58920166 57.95096558 342.58920166 57.95096558 341.14990234 58.92114258 C335.05638242 62.90941209 328.32232239 65.5769465 321.625 68.375 C280.44849989 86.08302854 269.17709127 126.78375736 252.99620056 165.4861908 C247.82492639 177.83642168 242.53480081 190.13553718 237.25 202.4375 C235.20251261 207.20676857 233.15574388 211.97634516 231.109375 216.74609375 C230.34667046 218.52375374 230.34667046 218.52375374 229.56855774 220.33732605 C224.18893609 232.88157873 218.84320905 245.44020486 213.5 258 C205.19584698 277.51810031 196.85513385 297.02023314 188.49276733 316.51345825 C180.58933072 334.93857813 172.72033418 353.3781132 164.87060547 371.82617188 C157.67703618 388.73093749 150.45411108 405.62285259 143.21020508 422.50610352 C136.21766669 438.80526726 129.25764966 455.11809118 122.3125 471.4375 C114.59399979 489.5736306 106.86119845 507.70344571 99.08447266 525.81469727 C98.37140837 527.4754185 97.65835474 529.1361443 96.9453125 530.796875 C96.60424469 531.59117416 96.26317688 532.38547333 95.91177368 533.20384216 C93.82222935 538.07348915 91.74574403 542.94847148 89.6796875 547.828125 C73.88700221 585.07721878 56.70208237 622.18987952 36 657 C35.44538086 657.93763184 34.89076172 658.87526367 34.31933594 659.84130859 C19.07786249 685.51997133 2.51177248 710.28164187 -16.57324219 733.26904297 C-17.82857742 734.79202839 -19.06073088 736.33405915 -20.2890625 737.87890625 C-27.04238106 746.36481777 -34.49453994 754.18300022 -42 762 C-42.51916992 762.54253418 -43.03833984 763.08506836 -43.57324219 763.64404297 C-49.12858326 769.42197178 -54.87797309 774.72497162 -61.15625 779.70703125 C-63.6112714 781.68656087 -65.97353375 783.73919295 -68.33129883 785.83227539 C-118.98231476 830.29910908 -186.55483688 844.69980265 -252.3215332 840.53735352 C-287.05576545 837.87038996 -327.90700385 827.75971296 -356 806 C-355.76490723 804.9486084 -355.52981445 803.8972168 -355.28759766 802.81396484 C-344.1291849 752.82189194 -335.18181482 702.57849775 -327.71191406 651.90209961 C-327.60055618 651.15562164 -327.4891983 650.40914368 -327.37446594 649.64004517 C-327.08165143 647.67432213 -326.79343641 645.70791544 -326.50561523 643.74145508 C-326 641 -326 641 -325 640 C-323.64362389 639.79073913 -322.27782301 639.6419116 -320.91088867 639.51928711 C-320.04296188 639.43927963 -319.1750351 639.35927216 -318.2808075 639.27684021 C-316.86370232 639.15333946 -316.86370232 639.15333946 -315.41796875 639.02734375 C-313.96938225 638.8962899 -313.96938225 638.8962899 -312.49153137 638.7625885 C-310.44302986 638.57813666 -308.39433116 638.3958641 -306.34545898 638.21557617 C-303.21097297 637.93956693 -300.07714333 637.65690501 -296.94335938 637.37304688 C-294.9557644 637.19491889 -292.96813523 637.01717207 -290.98046875 636.83984375 C-290.04180466 636.75548569 -289.10314056 636.67112762 -288.1360321 636.58421326 C-286.8199572 636.46893028 -286.8199572 636.46893028 -285.47729492 636.35131836 C-284.32265999 636.24925331 -284.32265999 636.24925331 -283.1446991 636.14512634 C-281.10056945 636.00680528 -279.04880422 636 -277 636 C-273.76743821 650.64940106 -270.68768097 665.31278884 -267.9296875 680.05859375 C-267.80399635 680.72910389 -267.67830521 681.39961403 -267.54880524 682.09044266 C-266.39057282 688.27237432 -265.24033943 694.45577411 -264.09912109 700.64086914 C-263.46324461 704.08494588 -262.8198542 707.5275537 -262.17206192 710.96940804 C-261.81872079 712.85856405 -261.47362646 714.74925685 -261.12887573 716.63999939 C-258.08310374 732.79463329 -254.23956578 748.22390668 -240 758 C-229.48929534 763.50760924 -219.3174487 765.37790533 -207.5625 765.3125 C-206.5098999 765.30758545 -205.4572998 765.3026709 -204.37280273 765.29760742 C-160.64986753 764.65047479 -120.89916175 741.88843417 -89.33984375 713.12109375 C-87.21195185 711.19213665 -85.05279141 709.30963647 -82.875 707.4375 C-76.02598411 701.45666922 -69.89429361 694.91014381 -64 688 C-63.22269531 687.11183594 -62.44539063 686.22367188 -61.64453125 685.30859375 C-49.13676708 670.91567678 -37.80633629 655.47619154 -27.55859375 639.40234375 C-25.10825579 635.57686583 -22.4739338 632.0070182 -19.66015625 628.44140625 C-12.43684465 619.22008403 -12.43684465 619.22008403 -10.15429688 608.11328125 C-11.45306452 602.78149827 -13.80405483 598.0763637 -16.36914062 593.25097656 C-20.25374508 585.6920577 -23.38936367 577.92365016 -26.484375 570.015625 C-27.0905315 568.48169918 -27.69740194 566.94805532 -28.30493164 565.41467285 C-29.5722722 562.2144592 -30.83665997 559.01310271 -32.09899902 555.81091309 C-34.83730127 548.87193002 -37.61399061 541.94834085 -40.38896179 535.02396202 C-41.95603123 531.11245378 -43.52032505 527.19983567 -45.08496094 523.28735352 C-47.42765993 517.43037593 -49.77069523 511.57353295 -52.11393356 505.71677113 C-53.89374278 501.2682435 -55.67345763 496.81967812 -57.453125 492.37109375 C-57.80812325 491.48371962 -58.16312149 490.59634548 -58.52887726 489.68208122 C-63.37787275 477.56075323 -68.2222182 465.43757753 -73.06267548 453.3128376 C-86.13494529 420.56996892 -99.23856963 387.84300574 -112.62567139 355.22720337 C-115.26440124 348.79824738 -117.8927259 342.36511707 -120.515625 335.9296875 C-142.74222937 281.41396395 -165.36443372 227.03894137 -189.15380859 173.18408203 C-190.90818563 169.21129181 -192.65430497 165.23489736 -194.40020752 161.25837708 C-214.33964773 103.85860706 -214.33964773 103.85860706 -253.4375 62.4375 C-259.23668857 60.18143812 -265.14107601 58.2161271 -271.06616211 56.31811523 C-277.84528688 54.13132564 -284.30826852 51.57374288 -291 49 C-291 34.15 -291 19.3 -291 4 C-276.24645625 3.85159889 -261.56112462 4.11881142 -246.8203125 4.65625 C-245.91141014 4.68921173 -245.00250778 4.72217346 -244.06606293 4.75613403 C-235.51602499 5.06766336 -226.96645122 5.39127527 -218.41699219 5.71826172 C-205.61293015 6.20571637 -192.80842378 6.64389725 -180 7 C-178.92844917 7.03122452 -178.92844917 7.03122452 -177.83525085 7.06307983 C-146.99102638 7.94245205 -116.15604491 5.55072554 -85.37866211 3.75506592 C-74.50204024 3.12080003 -63.62476815 2.49785871 -52.74701977 1.88323069 C-49.3541291 1.69117489 -45.96141206 1.49672055 -42.56900024 1.29637146 C-38.7975435 1.07402193 -35.02577467 0.85781458 -31.25390625 0.64257812 C-30.17514221 0.57712296 -29.09637817 0.51166779 -27.98492432 0.44422913 C-18.6139133 -0.08012324 -9.43841952 0 0 0 Z " fill="#F45700" transform="translate(2117,370)"/>
<path d="M0 0 C0.72221741 0.00060425 1.44443481 0.0012085 2.1885376 0.00183105 C54.91985835 0.11935894 121.22442013 2.23721006 169.125 26.1875 C168.56972642 33.00957342 167.58840539 39.7115407 166.4621582 46.4609375 C159.66691854 87.40091581 157.18967317 128.74314929 156.125 170.1875 C153.24152245 171.62923878 150.48885411 171.63635739 147.28125 171.94140625 C146.59752319 172.00657944 145.91379639 172.07175262 145.20935059 172.13890076 C143.75694277 172.27616597 142.30433867 172.41136755 140.8515625 172.54467773 C138.66080072 172.74669864 136.47105596 172.95782155 134.28125 173.16992188 C126.87742852 173.86981239 119.56976558 174.35603308 112.125 174.1875 C109.14717941 167.792272 106.67242534 161.32059772 104.40234375 154.64453125 C104.06024872 153.6498735 103.71815369 152.65521576 103.36569214 151.63041687 C102.63743242 149.51292045 101.91072227 147.39489054 101.18545532 145.27636719 C99.29457954 139.75949288 97.38513922 134.2490519 95.4765625 128.73828125 C95.10080582 127.65294098 94.72504913 126.56760071 94.33790588 125.44937134 C90.02028462 112.97782348 90.02028462 112.97782348 85.60232544 100.54159546 C84.96010299 98.75053625 84.33028345 96.95504465 83.70092773 95.15942383 C77.63479367 78.45530388 66.88566707 68.8292806 51.125 61.1875 C18.31582827 46.09833618 -23.15383469 46.00893342 -56.875 58.1875 C-67.66741777 62.36604827 -77.04873701 67.65154606 -85.875 75.1875 C-86.54917969 75.76113281 -87.22335937 76.33476562 -87.91796875 76.92578125 C-99.87963039 87.98965813 -106.53674542 104.53951841 -107.2109375 120.6328125 C-107.62682289 146.68814593 -99.63847889 166.96984777 -81.5625 185.875 C-53.77681499 212.49485208 -15.53420334 227.76299262 19.13595581 243.08963013 C126.62531251 290.61229503 126.62531251 290.61229503 159.125 333.1875 C159.83785156 334.04988281 160.55070312 334.91226562 161.28515625 335.80078125 C186.43129407 367.15584199 194.22834299 409.51413774 190.375 448.75 C186.4139065 484.25057233 171.91626403 515.52083823 147.125 541.1875 C145.84882812 542.55841797 145.84882812 542.55841797 144.546875 543.95703125 C102.07633941 588.39850487 35.98154843 601.67032062 -22.875 604.1875 C-23.70225586 604.22359375 -24.52951172 604.2596875 -25.38183594 604.296875 C-30.22291534 604.47609127 -35.03746092 604.38851873 -39.875 604.1875 C-40.94073242 604.14641113 -42.00646484 604.10532227 -43.10449219 604.06298828 C-101.61617052 601.6047124 -158.74077901 588.52719555 -213.875 569.1875 C-213.70109741 567.70262085 -213.70109741 567.70262085 -213.52368164 566.18774414 C-207.1563703 511.44229609 -209.98080262 457.97795148 -213.875 403.1875 C-199.025 403.1875 -184.175 403.1875 -168.875 403.1875 C-165.81668096 409.30413808 -162.89952721 415.24883782 -160.3359375 421.55078125 C-160.01726715 422.32485321 -159.6985968 423.09892517 -159.37026978 423.89645386 C-158.6846649 425.56223061 -158.00056994 427.2286295 -157.31787109 428.89559937 C-155.8463389 432.48447766 -154.36248274 436.06821896 -152.87945557 439.65235901 C-150.03630223 446.52400593 -147.19877372 453.39793651 -144.37207031 460.27636719 C-142.29121641 465.33696132 -140.19596114 470.39140378 -138.09210205 475.44247437 C-137.29118167 477.37223823 -136.49510497 479.30402072 -135.70428467 481.23794556 C-124.09756907 509.60465447 -107.8808082 531.32762703 -79.25 544.375 C-73.74123255 546.62385167 -68.17914221 548.38239945 -62.4375 549.9375 C-61.71159668 550.13625732 -60.98569336 550.33501465 -60.23779297 550.53979492 C-47.68774512 553.73971423 -35.02827807 554.57087686 -22.125 554.5 C-21.42978241 554.49817719 -20.73456482 554.49635437 -20.01828003 554.49447632 C-8.75663408 554.44498344 2.13887324 553.80275417 13.125 551.1875 C14.19911133 550.93806641 14.19911133 550.93806641 15.29492188 550.68359375 C30.47829896 547.02658054 44.5193673 540.80853931 56.125 530.1875 C56.81851562 529.58550781 57.51203125 528.98351562 58.2265625 528.36328125 C71.13339104 516.47803566 79.12969665 497.46866228 80.34423828 480.04174805 C81.38018151 450.23128971 75.4968484 427.09125337 55.125 404.8828125 C27.87974596 376.06026841 -12.28666003 360.23659629 -47.96655273 344.71908569 C-106.16205034 319.40051691 -171.4870277 290.42768201 -197.875 228.1875 C-213.6748772 187.65537628 -213.746761 139.25122595 -196.59643555 99.09472656 C-190.66680918 85.81895892 -182.89804975 74.50759902 -173.875 63.1875 C-173.31683594 62.48367188 -172.75867187 61.77984375 -172.18359375 61.0546875 C-168.50518862 56.58447309 -164.31117093 52.89073834 -159.875 49.1875 C-159.06160156 48.48625 -158.24820312 47.785 -157.41015625 47.0625 C-114.3445749 10.63698625 -54.90870975 -0.08681727 0 0 Z " fill="#F45700" transform="translate(1592.875,355.8125)"/>
<path d="M0 0 C17.49 0 34.98 0 53 0 C53 60.06 53 120.12 53 182 C105.5939675 179.37152677 105.5939675 179.37152677 158.1875 176.734375 C168.3984375 176.2265625 168.3984375 176.2265625 173.19042969 175.98925781 C176.51149296 175.82452354 179.83243726 175.6575853 183.15332031 175.48925781 C187.40808517 175.27366891 191.66302877 175.06199139 195.91812134 174.85297394 C197.46797479 174.77620623 199.01776475 174.69814107 200.56747437 174.61852264 C210.72078816 174.09784629 220.83348926 173.90990459 231 174 C231.27931144 182.76776058 230.21849853 191.36996581 229.25 200.06640625 C229.07021605 201.71259537 228.89086095 203.35883137 228.71191406 205.00511169 C228.24271244 209.31107413 227.76773508 213.61637995 227.29150391 217.92156982 C226.80539224 222.3255827 226.32481221 226.73019885 225.84375 231.13476562 C224.90121025 239.75710638 223.95256074 248.37876059 223 257 C214.51535822 257.19643869 206.12482928 256.57795763 197.67138672 255.91430664 C196.14599024 255.79738187 194.62056832 255.68078854 193.09512329 255.5644989 C188.97933243 255.24975259 184.86392242 254.9302648 180.74857473 254.60978246 C176.42837267 254.27406295 172.10785813 253.94241114 167.78738403 253.61021423 C160.53627532 253.05207728 153.2853998 252.49098928 146.03466797 251.92797852 C137.66542045 251.27813857 129.29587167 250.63230282 120.9261378 249.9887591 C111.99247098 249.30181422 103.05903094 248.6119548 94.1256547 247.92124248 C91.56071773 247.72312204 88.99573968 247.52554116 86.4307518 247.32808113 C82.39387769 247.01716452 78.35716001 246.70428748 74.32055283 246.389925 C72.8436279 246.27519714 71.36665349 246.16110431 69.88962555 246.04771042 C67.86531625 245.89218476 65.84120738 245.73405707 63.81710815 245.57582092 C62.68707304 245.48825059 61.55703793 245.40068026 60.39275932 245.31045628 C56.5798858 244.96155722 52.79679446 244.49294607 49 244 C49.08196771 285.97969469 49.17421974 327.9593558 49.28005161 369.93899744 C49.29256882 374.90757363 49.30500185 379.87615003 49.31738281 384.84472656 C49.31984881 385.83378121 49.3223148 386.82283586 49.32485552 387.84186186 C49.3644592 403.80630825 49.39726103 419.77076161 49.42749982 435.73522817 C49.45873612 452.14541456 49.4973964 468.55557167 49.54279006 484.96572506 C49.57051711 495.07213246 49.59261757 505.17851871 49.60726251 515.28495367 C49.61789539 522.23782815 49.63581113 529.19066141 49.65916704 536.14350466 C49.67238775 540.14056297 49.6826741 544.13756415 49.68421364 548.13464546 C49.54563908 582.37323725 49.54563908 582.37323725 54.3125 616.1875 C54.5305127 617.21593018 54.74852539 618.24436035 54.97314453 619.30395508 C59.63952244 640.6179968 68.04139183 662.77529912 86.1796875 676.22265625 C107.95843498 689.94749019 133.09066323 691.27311855 157.79296875 686.03125 C183.47702264 680.06316019 209.25422081 666.35911759 223.92578125 643.765625 C224.28027344 643.18296875 224.63476562 642.6003125 225 642 C236.49322317 646.77808154 245.8091842 663.1584521 253 673 C246.05422034 687.89657567 237.367774 700.20614751 226 712 C225.03513672 713.05960938 225.03513672 713.05960938 224.05078125 714.140625 C192.0287044 748.31603023 138.2651967 762.42288788 93.06884766 764.109375 C51.59396541 765.18298464 8.20812479 756.89068179 -24 729 C-24.50821289 728.56719727 -25.01642578 728.13439453 -25.54003906 727.68847656 C-54.01637097 703.30817739 -69.38197127 668.97078614 -73 632 C-73.74318914 620.27749966 -73.51933758 608.48897358 -73.46426249 596.74991703 C-73.44675314 592.05500045 -73.45285052 587.36010125 -73.45587158 582.66516113 C-73.45795432 574.55913452 -73.44555927 566.45323813 -73.42292023 558.34724426 C-73.39021086 546.62781058 -73.379974 534.90843893 -73.37496826 523.18896455 C-73.36624507 504.16825851 -73.33971087 485.14762166 -73.30175781 466.12695312 C-73.26496026 447.66601911 -73.23668655 429.20510398 -73.21972656 410.74414062 C-73.21815022 409.03308922 -73.21815022 409.03308922 -73.21654204 407.28747112 C-73.21132134 401.5640831 -73.20626664 395.84069495 -73.20129442 390.11730671 C-73.15992519 342.74480966 -73.08623785 295.37244078 -73 248 C-107.32 248 -141.64 248 -177 248 C-177 233.48 -177 218.96 -177 204 C-173.431875 203.443125 -169.86375 202.88625 -166.1875 202.3125 C-132.96436233 196.86371582 -102.70049812 185.20897387 -77 163 C-76.50467773 162.57315918 -76.00935547 162.14631836 -75.49902344 161.70654297 C-68.22064109 155.38705862 -61.85007019 148.68578187 -56 141 C-55.58427734 140.46987305 -55.16855469 139.93974609 -54.74023438 139.39355469 C-23.17493571 99.10688091 -10.14769397 49.21631576 0 0 Z " fill="#F45700" transform="translate(1050,200)"/>
</svg>
