<?xml version="1.0" standalone="no"?>
<!DOCTYPE svg PUBLIC "-//W3C//DTD SVG 20010904//EN"
 "http://www.w3.org/TR/2001/REC-SVG-20010904/DTD/svg10.dtd">
<svg version="1.0" xmlns="http://www.w3.org/2000/svg"
 width="735.000000pt" height="458.000000pt" viewBox="0 0 735.000000 458.000000"
 preserveAspectRatio="xMidYMid meet">

<g transform="translate(0.000000,458.000000) scale(0.100000,-0.100000)"
fill="#000000" stroke="none">
<path d="M3610 4143 c-280 -31 -478 -211 -512 -466 l-12 -87 -75 0 c-216 -1
-328 -67 -366 -215 -8 -33 -42 -290 -75 -570 -33 -281 -70 -575 -82 -655 -17
-112 -23 -190 -23 -340 0 -183 2 -199 25 -264 32 -89 84 -147 163 -185 117
-55 102 -54 952 -58 1023 -5 1036 -4 1166 126 91 92 111 145 117 311 3 101 -2
165 -27 335 -16 116 -33 239 -36 275 -10 100 -83 687 -105 849 -22 162 -33
209 -62 264 -39 78 -167 127 -332 127 l-86 0 0 28 c-1 57 -31 170 -65 238 -63
129 -203 234 -356 268 -75 16 -160 24 -209 19z m187 -282 c91 -43 145 -125
155 -236 l3 -30 -290 0 -290 0 3 45 c6 97 85 201 176 234 22 8 73 15 111 15
58 1 81 -4 132 -28z m-498 -405 c51 -27 68 -112 31 -159 -24 -31 -78 -50 -114
-41 -42 10 -76 59 -76 107 1 85 82 132 159 93z m859 0 c59 -30 72 -111 27
-164 -30 -36 -75 -47 -119 -28 -44 18 -66 52 -66 99 0 31 7 46 34 73 38 38 77
44 124 20z m-183 -443 c9 -65 45 -142 90 -191 43 -48 137 -98 201 -108 l44 -6
0 -125 0 -124 -47 6 c-79 10 -183 46 -236 82 -27 18 -51 33 -52 33 -2 0 -5
-143 -7 -317 l-3 -318 -37 -78 c-49 -103 -120 -177 -213 -223 -241 -119 -513
-27 -633 215 -34 69 -37 82 -40 180 -3 87 0 116 17 165 41 116 121 210 230
269 59 32 197 61 248 51 l33 -6 0 -127 0 -126 -62 0 c-76 0 -134 -29 -174 -86
-48 -70 -53 -143 -14 -219 70 -137 265 -148 355 -21 l30 43 3 526 c1 290 4
533 7 540 3 9 38 12 129 12 l124 0 7 -47z"/>
<path d="M4454 1027 c-2 -7 -3 -111 -2 -232 l3 -220 25 0 c25 0 25 1 27 95 4
121 7 134 38 148 34 16 57 15 81 -2 16 -12 20 -30 24 -128 l5 -113 26 -3 c26
-3 27 -1 34 62 12 120 -9 209 -58 235 -25 13 -96 12 -129 -3 -16 -7 -18 0 -18
83 0 91 0 91 -25 91 -14 0 -28 -6 -31 -13z"/>
<path d="M2323 1004 c-15 -24 -15 -29 -2 -53 11 -20 22 -26 49 -26 27 0 38 6
49 26 13 24 13 29 -2 53 -12 18 -26 26 -47 26 -21 0 -35 -8 -47 -26z"/>
<path d="M1952 978 l3 -43 53 -3 52 -3 0 -180 0 -179 60 0 60 0 0 180 0 180
43 0 c42 0 44 1 55 39 7 21 12 41 12 45 0 3 -77 6 -171 6 l-170 0 3 -42z"/>
<path d="M2470 795 l0 -225 60 0 60 0 0 59 c0 93 17 95 79 11 l51 -70 61 0
c48 0 59 3 52 13 -47 60 -143 197 -143 203 0 5 30 39 67 76 l67 68 -69 0 c-69
-1 -71 -1 -115 -45 l-45 -45 -3 90 -3 90 -59 0 -60 0 0 -225z"/>
<path d="M2860 975 l0 -45 55 0 55 0 0 -180 0 -180 55 0 55 0 0 180 0 180 45
0 c48 0 49 1 69 68 l7 22 -170 0 -171 0 0 -45z"/>
<path d="M3640 795 l0 -225 55 0 55 0 0 53 c0 40 5 58 19 71 18 17 21 15 68
-53 l48 -71 64 0 63 0 -24 32 c-67 90 -128 177 -128 184 0 5 30 39 67 76 l67
68 -70 0 c-70 0 -70 0 -114 -45 -24 -25 -47 -45 -51 -45 -3 0 -6 10 -6 23 -1
12 -1 52 -2 90 l-1 67 -55 0 -55 0 0 -225z"/>
<path d="M4164 996 c-43 -19 -64 -53 -64 -104 0 -54 32 -90 105 -117 105 -38
115 -44 125 -71 14 -35 -8 -69 -47 -77 -30 -6 -101 5 -146 22 -38 15 -37 16
-37 -24 0 -32 3 -35 43 -46 93 -25 199 -9 236 34 21 26 30 75 20 111 -12 42
-48 70 -126 97 -82 28 -103 44 -103 79 0 19 7 33 19 40 29 15 106 12 148 -5
40 -17 55 -8 51 30 -6 40 -156 61 -224 31z"/>
<path d="M3310 929 c-33 -13 -78 -57 -97 -94 -36 -68 -9 -185 54 -231 95 -70
216 -50 280 47 59 89 24 223 -70 268 -47 23 -124 27 -167 10z m109 -90 c35
-12 61 -53 61 -94 0 -35 -50 -85 -85 -85 -110 0 -138 145 -35 183 22 8 24 8
59 -4z"/>
<path d="M2315 868 c-3 -8 -4 -77 -3 -153 l3 -140 58 -3 58 -3 -3 153 -3 153
-53 3 c-37 2 -54 -1 -57 -10z"/>
<path d="M4829 857 c-50 -33 -71 -80 -65 -145 9 -98 63 -146 158 -139 62 4 96
25 124 79 19 36 18 112 -2 154 -34 72 -144 99 -215 51z m142 -56 c55 -55 31
-160 -40 -176 -68 -15 -119 50 -101 128 10 45 17 57 44 67 39 16 67 10 97 -19z"/>
<path d="M5117 873 c-4 -3 -7 -105 -7 -225 l0 -218 30 0 30 0 0 85 0 86 30
-16 c59 -31 140 -12 174 40 45 69 24 198 -38 236 -37 22 -101 24 -136 4 -32
-18 -40 -18 -40 0 0 15 -31 21 -43 8z m190 -67 c24 -21 27 -31 27 -80 0 -69
-24 -100 -79 -100 -50 0 -77 30 -83 93 -4 46 -2 53 26 81 37 36 71 39 109 6z"/>
</g>
</svg>
